<svg version="1.1" id="Layer_1" xmlns="http://www.w3.org/2000/svg" xmlns:xlink="http://www.w3.org/1999/xlink" x="0px" y="0px"
	 width="100%" viewBox="0 0 1024 480" enable-background="new 0 0 1024 480" xml:space="preserve">
<path fill="#000000" opacity="1.000000" stroke="none" 
	d="
M865.715881,214.296661 
	C869.723267,218.103775 871.076782,222.514587 871.193298,227.605560 
	C871.422485,237.619217 871.860962,247.539062 867.148743,256.950256 
	C865.362488,260.517792 866.215027,264.854095 863.542419,268.616943 
	C855.947937,279.309540 844.834045,281.670959 833.015137,283.129883 
	C824.100891,284.230286 815.228271,285.673553 806.344666,287.014313 
	C798.428894,288.208923 794.359497,287.139526 795.300110,276.843781 
	C797.280029,255.172150 792.604553,235.491882 773.114319,222.403122 
	C741.389648,201.098358 699.920593,216.709518 691.092041,253.388916 
	C688.746277,263.134613 689.480713,273.237183 690.362671,283.218292 
	C690.999939,290.430420 689.340149,292.300140 682.133728,292.301727 
	C572.638428,292.326080 463.143127,292.325195 353.647827,292.303040 
	C346.146301,292.301514 344.539856,289.858795 345.909637,281.038483 
	C347.144501,273.086761 347.235199,265.143860 345.745636,257.209473 
	C338.130951,216.648178 289.705475,199.169327 258.276489,225.844101 
	C245.665771,236.547226 240.990280,251.097794 240.313065,267.222839 
	C240.080597,272.757965 240.886459,278.185852 241.509430,283.637634 
	C242.186661,289.564514 240.606232,292.068817 234.855103,292.186920 
	C222.864456,292.433075 210.862808,292.604401 198.871719,291.879028 
	C193.555603,291.557465 188.227753,291.361115 182.902527,291.275604 
	C175.284485,291.153229 168.562561,288.592468 162.517365,284.101013 
	C158.049652,280.781555 157.665100,278.059479 160.902863,273.532684 
	C165.681580,266.851440 165.694275,266.840088 160.293732,260.800934 
	C158.809814,259.141541 157.660995,257.325348 157.472427,255.078583 
	C156.888702,248.123367 155.848572,241.156097 155.942825,234.206482 
	C156.074966,224.461411 161.620895,217.359543 169.103821,211.732651 
	C181.748032,202.224655 195.890656,195.512512 210.815155,190.555008 
	C235.070480,182.498077 260.315796,178.930328 285.407562,174.690735 
	C303.464142,171.639847 321.925385,171.827301 339.845245,167.693466 
	C350.332123,165.274261 360.198578,161.303879 369.428040,155.870468 
	C396.904663,139.694870 425.536407,125.887405 454.923950,113.581619 
	C472.020508,106.422585 489.980133,103.120819 508.316315,101.917358 
	C526.089966,100.750832 543.886475,99.897766 561.719360,99.792068 
	C620.723755,99.442352 678.037781,108.617622 733.535889,129.023544 
	C747.612915,134.199478 761.465027,139.906586 775.456238,145.275635 
	C794.071167,152.419037 813.427795,155.048233 833.175781,155.730026 
	C837.656128,155.884689 842.177673,155.321899 846.594666,156.608521 
	C852.149353,158.226517 854.507385,161.659744 851.882263,166.670349 
	C848.720642,172.704895 849.675842,177.303574 853.270020,182.693680 
	C857.258667,188.675400 858.884399,195.814774 860.277771,202.864838 
	C861.101562,207.032578 862.549072,210.860336 865.715881,214.296661 
M693.650024,229.231323 
	C696.436218,225.452805 699.805969,222.219284 703.284424,219.109375 
	C734.634094,191.081299 787.733765,205.594696 800.173096,245.603943 
	C803.022644,254.769272 803.771179,264.230530 803.257446,273.754639 
	C803.018005,278.192749 804.781433,279.377686 808.852356,278.684814 
	C821.327087,276.561707 833.842712,274.672333 846.297729,272.442749 
	C852.916443,271.257996 856.740662,266.930359 857.716675,260.274475 
	C858.180847,257.109009 859.357483,254.198029 860.478027,251.233780 
	C865.073547,239.076508 864.181702,227.419769 856.891907,216.483704 
	C855.206970,213.955963 853.789062,211.342133 853.203674,208.354736 
	C852.357605,204.037491 849.736450,201.966858 845.416199,202.366394 
	C836.423706,203.198013 830.425476,199.264130 826.786011,191.190628 
	C825.900696,189.226639 824.614868,187.445801 823.553101,185.558289 
	C818.765686,177.047287 821.807190,172.010818 831.776794,171.921585 
	C833.109314,171.909653 834.441895,171.894974 835.774414,171.892136 
	C838.128418,171.887131 839.998901,170.845840 841.298157,168.975266 
	C842.957092,166.587021 843.262512,164.606064 839.405212,164.317398 
	C836.090271,164.069305 832.788330,163.467102 829.474548,163.415726 
	C804.447083,163.027649 781.029663,156.314484 757.968933,146.917221 
	C733.776794,137.058899 708.968201,128.691422 683.584717,122.312790 
	C648.078064,113.390312 611.969666,109.058197 575.358765,108.915039 
	C569.864807,108.893562 564.371033,108.825493 558.877075,108.805916 
	C553.476440,108.786667 548.075623,108.801712 542.674927,108.801712 
	C570.351074,109.373169 597.881897,110.388863 625.331238,114.582474 
	C653.973694,118.958366 681.735718,126.237106 708.516418,137.113632 
	C721.019226,142.191483 721.638611,144.823547 714.877502,156.570343 
	C711.713196,162.068085 710.722107,167.446777 712.025696,173.744980 
	C713.788818,182.263565 712.362976,190.566605 708.517761,198.487473 
	C700.588501,214.821304 689.757568,228.985794 677.809692,242.611084 
	C662.236694,260.370514 642.721375,268.218262 619.739441,269.393341 
	C601.275879,270.337433 582.788208,270.710724 564.333130,271.600891 
	C529.398682,273.285919 494.426208,273.659668 459.494141,275.292603 
	C436.710632,276.357666 413.913574,277.137665 391.120148,277.978821 
	C387.970184,278.095032 384.787994,278.001770 381.654602,277.677917 
	C379.450043,277.450073 377.955780,275.938599 378.055725,273.602081 
	C378.141937,271.587128 379.415222,270.159943 381.437500,269.797546 
	C383.725494,269.387543 386.052582,269.051453 388.371643,268.981598 
	C412.677338,268.249573 436.986389,267.629181 461.291351,266.875946 
	C493.251617,265.885468 525.209473,264.816040 557.167358,263.749390 
	C562.883118,263.558655 564.125549,262.530975 563.655457,256.857300 
	C562.153198,238.723465 562.908630,220.564575 562.644897,202.417847 
	C562.532837,194.703369 563.780884,187.191666 565.436646,179.699966 
	C565.849609,177.831741 567.062866,175.971588 566.001648,173.648346 
	C560.646118,172.301346 555.229614,173.968063 549.813721,174.076340 
	C532.325623,174.425964 514.836487,174.879745 497.358795,175.572205 
	C459.589111,177.068649 421.827972,178.780731 384.059143,180.300018 
	C376.805725,180.591797 375.145691,181.628189 373.391052,188.805603 
	C369.692841,203.933395 371.411987,219.275940 371.790222,234.545364 
	C372.045624,244.856964 372.780426,255.156433 373.276184,265.462524 
	C373.411835,268.281311 372.458221,270.678589 369.343872,270.776825 
	C366.344757,270.871460 365.741180,268.435883 365.543610,265.907379 
	C363.689972,242.183945 361.173096,218.462402 363.844482,194.650604 
	C365.397583,180.806381 371.739349,170.080292 384.065002,162.593277 
	C408.174347,147.948502 432.952972,134.654572 458.850616,123.496635 
	C472.077972,117.797676 485.959656,114.283508 500.300598,112.811340 
	C511.658234,111.645439 523.040527,110.719826 535.261597,109.610374 
	C527.043213,108.812599 519.764404,109.999908 512.451904,110.228638 
	C491.242401,110.892044 470.715393,115.233269 451.399872,123.750862 
	C423.056610,136.249435 395.015533,149.463440 368.508820,165.666428 
	C364.835144,167.912064 360.829834,169.676941 356.840759,171.333817 
	C342.609650,177.244781 327.389435,177.751160 312.358063,179.549454 
	C284.608734,182.869324 257.013855,187.283905 229.745361,193.500900 
	C221.167236,195.456650 212.812363,198.181396 204.994354,202.369965 
	C212.015915,201.419708 219.011948,201.423996 225.992264,201.698792 
	C231.637131,201.921021 234.097015,206.151123 230.992157,210.488556 
	C224.306335,219.828506 216.154160,227.179977 204.007355,228.436920 
	C197.877914,229.071182 191.751205,229.740784 185.634933,230.489655 
	C182.312973,230.896393 179.014587,231.406265 175.749374,230.236877 
	C172.144226,228.945770 172.030350,225.372223 171.214447,222.021240 
	C162.281693,232.527664 161.449554,245.804810 168.671814,256.445801 
	C172.266937,261.742706 173.573212,267.286987 170.954987,273.435181 
	C168.850494,278.377014 169.406738,279.573120 174.565369,281.266418 
	C176.452927,281.886017 178.434738,282.476624 180.397476,282.568329 
	C196.203506,283.306458 212.013016,283.951172 227.843994,283.905487 
	C231.793701,283.894104 233.120743,282.104614 232.928452,278.336517 
	C232.682419,273.515228 232.415482,268.651245 232.768967,263.850677 
	C234.334976,242.582611 242.483353,224.901016 261.312866,213.389282 
	C286.582947,197.940033 323.638641,204.519531 340.938751,227.345871 
	C351.512665,241.297485 355.093628,257.125000 354.381378,274.328583 
	C353.986237,283.872070 354.265167,283.887512 363.761536,283.882660 
	C466.253998,283.830231 568.746460,283.779999 671.238892,283.718353 
	C682.926941,283.711304 681.733765,285.202148 681.591614,273.403351 
	C681.403137,257.760620 683.751770,242.851181 693.650024,229.231323 
M703.769470,188.146988 
	C705.302612,182.711868 705.088867,177.293610 703.638855,171.879730 
	C702.778992,168.669128 700.817383,167.338226 697.410217,167.498383 
	C668.999756,168.833771 640.582947,170.036789 612.171753,171.358902 
	C601.871399,171.838226 591.583252,172.574738 581.285095,173.108185 
	C577.014038,173.329407 574.444397,175.518539 573.512451,179.549591 
	C572.428284,184.239273 571.310913,188.928955 571.319702,193.808090 
	C571.355408,213.620499 571.319946,233.433029 571.344666,253.245468 
	C571.354614,261.268311 572.840210,262.617432 581.079712,262.741730 
	C595.911316,262.965363 610.670410,261.596039 625.430237,260.549591 
	C637.042542,259.726257 648.129944,256.454071 657.562317,249.348740 
	C678.531372,233.553070 693.435669,213.033081 703.769470,188.146988 
M425.820068,153.986511 
	C431.052979,158.152069 430.059479,164.370697 430.572632,170.423569 
	C439.042267,169.939178 446.983429,169.319077 454.936401,169.058563 
	C491.516968,167.860367 528.098816,166.685669 564.685852,165.719711 
	C569.621948,165.589386 571.886841,163.841049 572.631958,158.975845 
	C574.367859,147.640411 576.367249,136.342194 578.462646,125.066559 
	C579.209534,121.047363 578.373657,119.214874 573.860474,119.246132 
	C558.716553,119.351028 543.562805,118.834282 528.427429,119.184898 
	C502.452759,119.786613 477.158936,124.261955 453.068115,134.338821 
	C442.505646,138.756943 432.127106,143.594254 423.175110,150.598221 
	C423.193726,152.417282 424.559875,152.732880 425.820068,153.986511 
M638.458984,125.227531 
	C623.292175,121.919998 607.828369,121.012024 592.435608,119.529411 
	C588.418457,119.142479 587.256714,121.812988 586.700134,124.993294 
	C584.866211,135.472046 582.951538,145.939514 581.334534,156.452332 
	C580.313965,163.087357 581.338928,164.065186 588.169800,163.782440 
	C603.633240,163.142349 619.089233,162.311707 634.555115,161.745193 
	C655.513000,160.977478 676.476501,160.357849 697.439514,159.738281 
	C701.797852,159.609467 705.118042,157.715286 707.570435,154.273666 
	C711.168701,149.223862 710.172729,146.311249 704.415710,144.112549 
	C683.237610,136.024307 661.602722,129.533997 638.458984,125.227531 
M390.436646,171.733994 
	C399.087006,172.171066 407.635406,171.072510 416.185364,170.013107 
	C419.624146,169.586990 422.611603,168.161575 422.420532,164.288559 
	C422.210663,160.033447 418.744781,159.406403 415.194397,159.137802 
	C403.821503,158.277359 395.915283,165.049271 386.478821,171.412750 
	C388.430084,171.578766 389.072784,171.633453 390.436646,171.733994 
M188.369110,221.083008 
	C192.357391,220.947174 196.378036,221.084808 200.327133,220.617737 
	C208.182175,219.688705 215.205048,216.999756 220.370117,209.942657 
	C206.279816,209.146484 189.446625,214.551544 184.587814,221.265091 
	C185.645996,221.209000 186.631516,221.156784 188.369110,221.083008 
M834.622314,188.847305 
	C839.258667,195.055130 842.098877,195.897476 847.870483,192.776443 
	C846.868896,183.072678 838.991943,177.723755 831.651794,181.841644 
	C831.824036,184.235779 833.255005,186.139114 834.622314,188.847305 
z"/>
<path fill="#000000" opacity="1.000000" stroke="none" 
	d="
M483.726624,386.035095 
	C483.549103,380.949585 484.071808,376.289185 482.293671,371.043854 
	C477.913666,378.976410 473.825714,386.355347 469.764740,393.749084 
	C468.461060,396.122589 467.236023,398.512787 463.979279,398.544861 
	C460.733459,398.576813 459.465363,396.263794 458.103577,393.888000 
	C454.070587,386.851898 449.952026,379.864899 445.866943,372.858704 
	C445.372742,372.985138 444.878510,373.111542 444.384277,373.237976 
	C444.384277,381.464905 444.472931,389.693176 444.351196,397.918304 
	C444.277557,402.892944 441.874146,404.763794 437.025818,404.268646 
	C433.806885,403.939880 431.967255,402.037140 431.939575,399.106171 
	C431.780701,382.276947 431.803192,365.445648 431.843567,348.615234 
	C431.851074,345.494720 434.192017,344.408875 436.812836,343.938141 
	C440.886627,343.206421 444.587646,343.882751 446.806610,347.774445 
	C449.859222,353.128204 452.664124,358.622589 455.633606,364.024597 
	C458.103424,368.517670 460.657471,372.964417 463.169281,377.422943 
	C466.051880,376.452332 466.535736,374.112274 467.515259,372.326904 
	C471.682343,364.731873 475.673798,357.040649 479.749969,349.395538 
	C481.384979,346.329010 483.499908,343.959839 487.332855,343.682587 
	C494.283539,343.179840 496.332489,344.988892 496.338776,351.930542 
	C496.352539,367.096649 496.313782,382.263000 496.397827,397.428711 
	C496.422394,401.861542 494.734131,404.371979 490.041595,404.502991 
	C486.171417,404.610962 483.967468,402.916565 483.827850,399.024536 
	C483.678589,394.862762 483.752808,390.692932 483.726624,386.035095 
z"/>
<path fill="#000000" opacity="1.000000" stroke="none" 
	d="
M249.690170,247.922653 
	C257.352722,230.263565 270.172668,219.506866 289.182495,217.959137 
	C307.478638,216.469528 322.464600,223.360947 332.933685,238.824417 
	C347.984863,261.055878 340.444092,291.439423 316.641754,304.927612 
	C299.407776,314.693634 278.929871,313.169312 264.269470,301.029053 
	C248.370590,287.863220 242.824432,267.941925 249.690170,247.922653 
M260.272430,244.825317 
	C254.414825,255.036545 252.779465,265.830597 256.839722,276.966187 
	C263.664795,295.684479 280.439270,305.415833 300.332977,302.641083 
	C319.971771,299.901855 335.983856,277.811707 332.180054,258.705078 
	C328.633972,240.892944 318.458008,230.645844 300.645020,226.949509 
	C284.759918,223.653244 270.478912,229.812958 260.272430,244.825317 
z"/>
<path fill="#000000" opacity="1.000000" stroke="none" 
	d="
M778.979004,234.077652 
	C800.633118,262.493134 788.602539,300.177917 755.050842,310.039459 
	C728.696838,317.785400 700.088928,298.376740 696.589111,271.148560 
	C692.993652,243.175690 711.428467,225.043274 729.466187,219.300110 
	C748.981934,213.086334 764.937683,220.062561 778.979004,234.077652 
M766.802002,295.358215 
	C782.162720,281.980072 786.428345,263.713715 778.140137,246.806290 
	C770.456604,231.132401 752.525879,222.711639 734.936279,226.379333 
	C713.220764,230.907349 701.469055,251.174484 704.724060,270.804169 
	C708.861816,295.757446 739.469604,314.951111 766.802002,295.358215 
z"/>
<path fill="#000000" opacity="1.000000" stroke="none" 
	d="
M778.855225,402.162537 
	C767.281372,406.077240 755.741455,403.854462 744.348083,404.102264 
	C741.355652,404.167297 740.039124,401.581726 740.019043,398.901001 
	C739.897217,382.609100 739.839355,366.315674 739.944092,350.023926 
	C739.968811,346.173370 742.298889,343.678497 746.273804,343.776825 
	C754.564026,343.981964 762.854187,343.211273 771.152954,344.513611 
	C786.367188,346.901276 795.926086,355.708130 797.954895,369.806763 
	C800.033386,384.250610 793.441467,395.584930 778.855225,402.162537 
M778.876465,387.435150 
	C784.932251,382.019836 786.140198,375.333801 783.550293,367.950592 
	C780.995544,360.667725 774.731262,356.536041 766.636658,356.305206 
	C763.979492,356.229401 761.309814,356.337311 758.665710,356.119659 
	C754.571533,355.782745 752.691895,357.891602 752.689331,361.630341 
	C752.683350,370.264679 752.902283,378.899292 753.048889,387.533478 
	C753.085815,389.706696 753.734131,391.809753 756.233398,391.810791 
	C763.799622,391.813904 771.629883,392.996674 778.876465,387.435150 
z"/>
<path fill="#000000" opacity="1.000000" stroke="none" 
	d="
M680.314819,380.000061 
	C680.307434,385.664001 680.294128,390.827942 680.294678,395.991882 
	C680.294983,399.184906 680.618958,402.674896 676.674988,403.867004 
	C672.524170,405.121704 668.755432,404.281799 665.897217,400.716644 
	C660.585632,394.091400 655.325500,387.423950 649.938110,380.860962 
	C646.899109,377.158813 643.649048,373.629944 639.312012,370.367310 
	C639.312012,379.425873 639.316101,388.484406 639.310059,397.542969 
	C639.307495,401.310883 638.121643,404.078278 633.745972,404.300751 
	C629.493958,404.516998 626.825195,402.615173 626.786865,398.343384 
	C626.638855,381.853790 626.708435,365.362335 626.684692,348.871552 
	C626.680603,346.035248 628.353088,344.646790 630.851868,344.041168 
	C635.471802,342.921448 638.877258,344.735565 641.688110,348.383301 
	C648.498718,357.221710 655.403076,365.988220 662.317383,374.746063 
	C663.411072,376.131378 664.185120,377.895142 666.737488,378.799103 
	C666.737488,369.272430 666.758179,360.031219 666.728394,350.790192 
	C666.714355,346.422455 668.507263,343.802521 673.167847,343.707458 
	C678.044495,343.607971 680.250244,345.570923 680.294678,350.515411 
	C680.381531,360.176239 680.316772,369.838440 680.314819,380.000061 
z"/>
<path fill="#000000" opacity="1.000000" stroke="none" 
	d="
M374.794830,361.578247 
	C375.764679,369.688782 372.853027,375.759491 366.470551,379.900299 
	C363.026398,382.134705 362.993011,384.116150 365.267853,387.131226 
	C368.067535,390.841919 370.607788,394.751953 373.183044,398.627106 
	C374.890045,401.195679 374.112579,402.876801 371.225769,403.913544 
	C366.639313,405.560760 362.631683,404.930969 359.587860,400.988251 
	C356.846161,397.436859 354.249176,393.760864 351.791168,390.007050 
	C349.433289,386.406097 346.280212,384.897217 342.047028,385.407562 
	C337.911804,385.906128 335.434784,387.742676 336.550598,392.306763 
	C337.173187,394.853271 336.584076,397.288391 336.176544,399.721802 
	C335.540558,403.519531 332.880890,405.042725 329.308289,404.682556 
	C325.805145,404.329376 323.448151,402.670044 323.624878,398.555908 
	C324.254059,383.910583 322.952301,369.294067 322.847534,354.659821 
	C322.780945,345.357941 324.607391,343.652100 333.966919,343.750427 
	C341.275543,343.827179 348.568695,343.567993 355.885742,344.523987 
	C367.070526,345.985291 372.226807,350.253113 374.794830,361.578247 
M340.219940,356.315643 
	C338.988281,356.430908 338.038818,356.985687 337.355591,358.040710 
	C333.145172,364.542358 336.542847,371.875305 344.140289,373.123474 
	C347.377106,373.655212 350.449951,373.024139 353.515594,372.555786 
	C357.989227,371.872284 360.457184,368.897736 360.798706,364.365845 
	C361.139954,359.837769 358.284302,357.843353 354.447113,356.725464 
	C350.032593,355.439362 345.546997,356.118042 340.219940,356.315643 
z"/>
<path fill="#000000" opacity="1.000000" stroke="none" 
	d="
M208.788940,400.245087 
	C216.059418,383.203156 223.241913,366.552643 230.549606,349.957275 
	C232.386078,345.786743 235.741440,343.705811 240.439987,343.648651 
	C245.051025,343.592560 247.192276,346.227600 248.865509,350.073242 
	C255.570953,365.484558 262.498749,380.799316 269.173431,396.223694 
	C270.153473,398.488464 273.045135,401.196075 269.301697,403.623993 
	C265.854309,405.859894 260.697601,405.255219 258.364563,402.181702 
	C256.979980,400.357666 256.073578,398.147949 255.091003,396.046753 
	C253.509872,392.665588 250.951508,390.999268 247.201904,391.026611 
	C243.043213,391.056915 238.883759,390.968842 234.724548,390.945648 
	C227.565735,390.905762 225.322342,392.470642 222.370224,400.015686 
	C221.193970,403.021973 219.299866,405.005768 216.053391,404.432739 
	C213.350891,403.955780 209.134857,405.795959 208.788940,400.245087 
M238.578491,379.674042 
	C240.393463,379.650452 242.212631,379.695526 244.022339,379.585480 
	C246.165436,379.455109 247.013977,378.166473 246.318008,376.205353 
	C244.571579,371.284149 242.911087,366.303223 239.335663,361.176300 
	C236.333710,367.342834 233.072861,372.523346 232.348465,378.551331 
	C234.386780,380.001007 236.096222,379.506714 238.578491,379.674042 
z"/>
<path fill="#000000" opacity="1.000000" stroke="none" 
	d="
M896.187744,352.038147 
	C893.319580,359.850647 891.309753,360.772552 884.296143,357.636261 
	C880.261597,355.832153 876.166138,354.579620 871.723755,355.571014 
	C869.121887,356.151672 866.899170,357.598450 866.622925,360.387573 
	C866.368469,362.956848 868.633362,364.097382 870.665405,364.860779 
	C874.868408,366.439758 879.171204,367.750763 883.395569,369.275604 
	C894.218079,373.182129 899.759094,379.725922 898.935669,387.521515 
	C897.972229,396.643494 889.677429,403.965729 878.679504,405.117981 
	C869.479736,406.081879 861.276733,403.242584 853.789368,398.013062 
	C850.756348,395.894623 850.206665,393.390625 852.413452,390.365997 
	C854.492920,387.515869 856.531189,385.172913 860.579712,387.761444 
	C865.518250,390.919006 870.758179,393.342407 876.965637,392.829987 
	C880.519226,392.536652 883.861450,392.134033 884.554199,387.952209 
	C885.300415,383.447510 881.663208,382.476685 878.494751,381.410126 
	C874.241516,379.978455 869.908447,378.782074 865.664551,377.324890 
	C856.452271,374.161713 852.070923,368.330597 852.614807,360.163177 
	C853.175415,351.744263 858.997009,345.528351 868.353149,344.019928 
	C876.773132,342.662445 884.946899,343.870972 892.623108,347.768616 
	C894.273193,348.606476 895.859070,349.560608 896.187744,352.038147 
z"/>
<path fill="#000000" opacity="1.000000" stroke="none" 
	d="
M118.974670,385.941772 
	C126.951759,394.376617 136.497360,395.300842 145.661987,388.792297 
	C150.409164,385.420959 151.944168,385.670441 155.785477,389.781403 
	C158.198792,392.364105 158.284195,394.560120 155.769333,397.078339 
	C150.180054,402.675110 143.294113,405.119537 135.588821,405.765747 
	C121.947746,406.909821 109.123085,399.425568 104.129066,387.363251 
	C98.702393,374.255920 102.373009,358.844971 112.994431,350.142609 
	C123.672188,341.393982 142.353561,340.962250 153.135788,349.214935 
	C158.423096,353.261810 158.333969,356.855255 153.122971,360.771362 
	C150.049530,363.081024 147.886292,361.423218 145.582397,359.657318 
	C139.109848,354.696289 132.282181,353.810364 125.132545,358.071869 
	C114.928322,364.154022 112.509758,374.752899 118.974670,385.941772 
z"/>
<path fill="#000000" opacity="1.000000" stroke="none" 
	d="
M555.892456,361.011688 
	C555.921448,356.854645 555.905212,353.193970 555.991577,349.535706 
	C556.084961,345.580719 558.492920,343.936951 562.132935,343.810699 
	C565.805725,343.683319 568.233398,345.149078 568.441223,349.190643 
	C569.278809,365.478302 569.193054,381.774689 568.831543,398.069977 
	C568.732971,402.512756 566.375732,404.601257 561.753967,404.384521 
	C557.095520,404.166077 555.848206,401.439728 555.853699,397.445679 
	C555.870300,385.466827 555.880066,373.487976 555.892456,361.011688 
z"/>
<path fill="#000000" opacity="1.000000" stroke="none" 
	d="
M203.819443,258.418610 
	C204.669952,260.281952 205.522446,261.753815 205.959915,263.340179 
	C207.780350,269.941315 204.995239,274.763031 198.428146,276.048859 
	C191.876755,277.331665 185.216309,277.520813 178.547760,277.323029 
	C176.068344,277.249481 174.288956,276.223083 174.023972,273.637909 
	C173.741516,270.882385 175.587875,269.676514 177.976425,269.508087 
	C182.782593,269.169189 187.605591,269.075470 192.419510,268.837463 
	C194.514023,268.733948 197.077576,269.230713 197.607254,266.244354 
	C198.110107,263.409393 196.591583,261.513702 194.163757,260.217163 
	C192.470444,259.312897 190.644333,259.325256 188.812317,259.302582 
	C184.153198,259.244934 179.488541,259.302277 174.837143,259.081024 
	C172.107239,258.951172 169.809204,257.669983 169.975937,254.540375 
	C170.127701,251.691711 172.329422,250.631470 174.913727,250.718430 
	C181.375854,250.935852 187.857925,250.013657 194.309250,251.343277 
	C198.518433,252.210785 201.680405,254.231750 203.819443,258.418610 
z"/>
</svg>